<mxfile host="65bd71144e">
    <diagram id="V193unEFw3EmydueZYKe" name="Page-1">
        <mxGraphModel dx="1074" dy="773" grid="1" gridSize="10" guides="1" tooltips="1" connect="1" arrows="1" fold="1" page="1" pageScale="1" pageWidth="850" pageHeight="1100" math="0" shadow="0">
            <root>
                <mxCell id="0"/>
                <mxCell id="1" parent="0"/>
                <mxCell id="65" value="" style="rounded=0;whiteSpace=wrap;html=1;shadow=0;glass=0;dashed=1;" parent="1" vertex="1">
                    <mxGeometry x="130" y="46" width="680" height="500" as="geometry"/>
                </mxCell>
                <mxCell id="68" style="edgeStyle=none;html=1;" parent="1" source="63" target="67" edge="1">
                    <mxGeometry relative="1" as="geometry"/>
                </mxCell>
                <mxCell id="63" value="" style="outlineConnect=0;dashed=0;verticalLabelPosition=bottom;verticalAlign=top;align=center;html=1;shape=mxgraph.aws3.user;fillColor=#D2D3D3;gradientColor=none;rounded=0;shadow=0;glass=0;" parent="1" vertex="1">
                    <mxGeometry x="42.5" y="278.5" width="35" height="43" as="geometry"/>
                </mxCell>
                <mxCell id="64" value="Client" style="text;html=1;strokeColor=none;fillColor=none;align=center;verticalAlign=middle;whiteSpace=wrap;rounded=0;shadow=0;glass=0;dashed=1;" parent="1" vertex="1">
                    <mxGeometry x="30" y="240" width="60" height="30" as="geometry"/>
                </mxCell>
                <mxCell id="66" value="us-east-1" style="text;html=1;strokeColor=none;fillColor=none;align=center;verticalAlign=middle;whiteSpace=wrap;rounded=0;shadow=0;glass=0;dashed=1;" parent="1" vertex="1">
                    <mxGeometry x="740" y="20" width="60" height="30" as="geometry"/>
                </mxCell>
                <mxCell id="87" style="edgeStyle=none;html=1;entryX=0.466;entryY=0.992;entryDx=0;entryDy=0;entryPerimeter=0;" parent="1" source="67" target="70" edge="1">
                    <mxGeometry relative="1" as="geometry"/>
                </mxCell>
                <mxCell id="108" style="edgeStyle=none;html=1;" parent="1" source="67" target="65" edge="1">
                    <mxGeometry relative="1" as="geometry"/>
                </mxCell>
                <mxCell id="70" value="" style="rounded=1;whiteSpace=wrap;html=1;shadow=0;glass=0;dashed=1;direction=south;fontStyle=1" parent="1" vertex="1">
                    <mxGeometry x="490" y="66.5" width="120" height="213.5" as="geometry"/>
                </mxCell>
                <mxCell id="75" value="" style="edgeStyle=none;html=1;" parent="1" source="71" target="72" edge="1">
                    <mxGeometry relative="1" as="geometry"/>
                </mxCell>
                <mxCell id="71" value="App" style="rounded=1;whiteSpace=wrap;html=1;shadow=0;glass=0;dashed=1;fontStyle=1" parent="1" vertex="1">
                    <mxGeometry x="495" y="80" width="85" height="20" as="geometry"/>
                </mxCell>
                <mxCell id="72" value="" style="shape=cylinder3;whiteSpace=wrap;html=1;boundedLbl=1;backgroundOutline=1;size=15;rounded=0;shadow=0;glass=0;dashed=1;fontStyle=1" parent="1" vertex="1">
                    <mxGeometry x="520" y="138.25" width="32.5" height="61.75" as="geometry"/>
                </mxCell>
                <mxCell id="74" value="Amazon S3" style="sketch=0;outlineConnect=0;fontColor=#232F3E;gradientColor=none;strokeColor=#ffffff;fillColor=#232F3E;dashed=0;verticalLabelPosition=middle;verticalAlign=bottom;align=center;html=1;whiteSpace=wrap;fontSize=10;fontStyle=1;spacing=3;shape=mxgraph.aws4.productIcon;prIcon=mxgraph.aws4.s3;rounded=0;shadow=0;glass=0;" parent="1" vertex="1">
                    <mxGeometry x="520" y="230" width="30" height="50" as="geometry"/>
                </mxCell>
                <mxCell id="102" value="" style="rounded=1;whiteSpace=wrap;html=1;shadow=0;glass=0;dashed=1;direction=south;fontStyle=1" parent="1" vertex="1">
                    <mxGeometry x="480" y="300" width="120" height="213.5" as="geometry"/>
                </mxCell>
                <mxCell id="103" value="" style="edgeStyle=none;html=1;" parent="1" source="104" target="105" edge="1">
                    <mxGeometry relative="1" as="geometry"/>
                </mxCell>
                <mxCell id="104" value="App" style="rounded=1;whiteSpace=wrap;html=1;shadow=0;glass=0;dashed=1;fontStyle=1" parent="1" vertex="1">
                    <mxGeometry x="495" y="313.5" width="85" height="20" as="geometry"/>
                </mxCell>
                <mxCell id="105" value="" style="shape=cylinder3;whiteSpace=wrap;html=1;boundedLbl=1;backgroundOutline=1;size=15;rounded=0;shadow=0;glass=0;dashed=1;fontStyle=1" parent="1" vertex="1">
                    <mxGeometry x="520" y="371.75" width="32.5" height="61.75" as="geometry"/>
                </mxCell>
                <mxCell id="107" value="Amazon S3" style="sketch=0;outlineConnect=0;fontColor=#232F3E;gradientColor=none;strokeColor=#ffffff;fillColor=#232F3E;dashed=0;verticalLabelPosition=middle;verticalAlign=bottom;align=center;html=1;whiteSpace=wrap;fontSize=10;fontStyle=1;spacing=3;shape=mxgraph.aws4.productIcon;prIcon=mxgraph.aws4.s3;rounded=0;shadow=0;glass=0;" parent="1" vertex="1">
                    <mxGeometry x="520" y="463.5" width="30" height="50" as="geometry"/>
                </mxCell>
                <mxCell id="114" style="edgeStyle=none;html=1;entryX=0.468;entryY=1;entryDx=0;entryDy=0;entryPerimeter=0;" parent="1" source="67" target="102" edge="1">
                    <mxGeometry relative="1" as="geometry"/>
                </mxCell>
                <mxCell id="67" value="" style="outlineConnect=0;dashed=0;verticalLabelPosition=bottom;verticalAlign=top;align=center;html=1;shape=mxgraph.aws3.classic_load_balancer;fillColor=#F58534;gradientColor=none;rounded=0;shadow=0;glass=0;" parent="1" vertex="1">
                    <mxGeometry x="200" y="260" width="69" height="72" as="geometry"/>
                </mxCell>
                <mxCell id="119" value="" style="endArrow=classic;startArrow=classic;html=1;entryX=0.5;entryY=1;entryDx=0;entryDy=0;entryPerimeter=0;flowAnimation=1;" edge="1" parent="1" source="74" target="72">
                    <mxGeometry width="50" height="50" relative="1" as="geometry">
                        <mxPoint x="495" y="260" as="sourcePoint"/>
                        <mxPoint x="545" y="210" as="targetPoint"/>
                    </mxGeometry>
                </mxCell>
                <mxCell id="122" value="" style="endArrow=classic;startArrow=classic;html=1;entryX=0.5;entryY=1;entryDx=0;entryDy=0;entryPerimeter=0;flowAnimation=1;" edge="1" parent="1">
                    <mxGeometry width="50" height="50" relative="1" as="geometry">
                        <mxPoint x="536.9981818181817" y="463.5" as="sourcePoint"/>
                        <mxPoint x="537.68" y="433.5" as="targetPoint"/>
                    </mxGeometry>
                </mxCell>
            </root>
        </mxGraphModel>
    </diagram>
</mxfile>